<svg width="181" height="148" xmlns="http://www.w3.org/2000/svg"><title>Logo</title><g fill="none" fill-rule="evenodd"><path d="M52.328 33.864c-1.92 4.075-3.467 7.915-4.64 11.52C39.901 45.128 34.131 45 30.376 45c-4.096 0-10.048.128-17.856.384-.256 0-.384-.192-.384-.576 0-.277.08-.539.24-.784.16-.245.336-.379.528-.4 1.707-.192 3.035-.448 3.984-.768.95-.32 1.659-.752 2.128-1.296.47-.544.907-1.659 1.312-3.344l7.168-30.112c.213-.939.32-1.664.32-2.176 0-.981-.421-1.707-1.264-2.176-.843-.47-2.32-.832-4.432-1.088-.213 0-.32-.17-.32-.512 0-.299.08-.587.24-.864.16-.277.336-.416.528-.416 1.472 0 3.285.064 5.44.192 1.835.128 3.285.192 4.352.192 1.067 0 2.528-.064 4.384-.192 2.048-.128 3.744-.192 5.088-.192.213 0 .32.213.32.64 0 .277-.08.539-.24.784-.16.245-.336.368-.528.368-1.707.192-3.03.453-3.968.784-.939.33-1.643.763-2.112 1.296-.47.533-.896 1.653-1.28 3.36l-7.168 30.112c-.256 1.11-.384 1.835-.384 2.176 0 1.707 1.003 2.56 3.008 2.56h7.744c2.667 0 5.152-.843 7.456-2.528 2.304-1.685 4.256-4.064 5.856-7.136.15-.256.416-.384.8-.384.683 0 1.024.245 1.024.736l-.032.224zM75.656 21.64c0 2.923-1.45 5.552-4.352 7.888-2.901 2.336-6.272 3.504-10.112 3.504A35.061 35.061 0 0 0 61 36.488c0 1.877.261 3.221.784 4.032.523.81 1.392 1.216 2.608 1.216 2.73 0 5.152-1.568 7.264-4.704l.192-.096c.17 0 .352.112.544.336.192.224.288.432.288.624 0 .448-.65 1.515-1.952 3.2-1.301 1.685-2.672 2.992-4.112 3.92-1.44.928-2.843 1.392-4.208 1.392-2.09 0-3.808-.805-5.152-2.416-1.344-1.61-2.016-3.515-2.016-5.712 0-3.072.805-6.283 2.416-9.632 1.61-3.35 3.67-6.155 6.176-8.416 2.507-2.261 4.827-3.392 6.96-3.392 1.536 0 2.73.432 3.584 1.296.853.864 1.28 2.032 1.28 3.504zm-4.544 1.088c0-1.792-.79-2.688-2.368-2.688-1.536 0-2.976 1.045-4.32 3.136-1.344 2.09-2.293 4.693-2.848 7.808 1.792 0 3.387-.379 4.784-1.136 1.397-.757 2.539-1.845 3.424-3.264.885-1.419 1.328-2.704 1.328-3.856zm35.488-5.312l-9.088 20.992c-.64 1.45-.96 2.496-.96 3.136 0 .512.213.768.64.768.619 0 2.005-1.29 4.16-3.872.981-1.173 1.536-1.76 1.664-1.76.256 0 .49.123.704.368.213.245.32.485.32.72 0 .299-.779 1.323-2.336 3.072-1.557 1.75-3.035 3.115-4.432 4.096-1.397.981-2.576 1.472-3.536 1.472-2.133 0-3.2-1.003-3.2-3.008 0-1.877.896-4.48 2.688-7.808-1.557 2.901-3.632 5.43-6.224 7.584-2.592 2.155-4.848 3.232-6.768 3.232-1.088 0-1.947-.416-2.576-1.248-.63-.832-.944-1.973-.944-3.424 0-2.795 1.173-6 3.52-9.616a39.494 39.494 0 0 1 8.64-9.488c3.413-2.71 6.272-4.064 8.576-4.064 1.13 0 2.048.235 2.752.704l.768-1.856c.32-.725 1.43-1.088 3.328-1.088 1.557 0 2.336.299 2.336.896l-.032.192zm-7.936 5.056c0-1.28-.47-1.92-1.408-1.92-1.813 0-3.893 1.008-6.24 3.024-2.347 2.016-4.4 4.496-6.16 7.44-1.76 2.944-2.64 5.387-2.64 7.328 0 1.152.181 1.973.544 2.464.363.49.97.736 1.824.736 1.088 0 2.768-1.243 5.04-3.728 2.272-2.485 4.347-5.307 6.224-8.464 1.877-3.157 2.816-5.45 2.816-6.88zm34.464-2.048c0 1.067-.299 1.92-.896 2.56-.597.64-1.323.96-2.176.96-.768 0-1.504-.395-2.208-1.184-.597-.661-1.163-.992-1.696-.992-1.323 0-3.301 2.165-5.936 6.496-2.635 4.33-5.35 9.76-8.144 16.288-.299.725-1.259 1.088-2.88 1.088a4.1 4.1 0 0 1-1.52-.272c-.459-.181-.688-.4-.688-.656l.032-.16 6.72-19.712c.555-1.664.832-2.71.832-3.136 0-.512-.213-.768-.64-.768-.683 0-1.899 1.152-3.648 3.456-.853 1.11-1.365 1.664-1.536 1.664-.299 0-.555-.123-.768-.368-.213-.245-.32-.485-.32-.72 0-.299.704-1.264 2.112-2.896 1.408-1.632 2.768-2.912 4.08-3.84 1.312-.928 2.448-1.392 3.408-1.392 2.219 0 3.328.96 3.328 2.88 0 1.067-.341 2.581-1.024 4.544l-1.216 3.456c4.053-7.253 7.616-10.88 10.688-10.88 1.195 0 2.176.325 2.944.976.768.65 1.152 1.52 1.152 2.608zm28.096.64c0 1.43-.448 3.2-1.344 5.312l-5.056 12.032c-.725 1.75-1.088 2.795-1.088 3.136 0 .512.192.768.576.768.768 0 2.123-1.163 4.064-3.488.875-1.045 1.397-1.568 1.568-1.568.256 0 .48.117.672.352.192.235.288.48.288.736 0 .363-.747 1.339-2.24 2.928-1.493 1.59-2.955 2.843-4.384 3.76-1.43.917-2.656 1.376-3.68 1.376-.917 0-1.648-.208-2.192-.624-.544-.416-.816-.997-.816-1.744 0-1.216.47-2.923 1.408-5.12l5.184-12.352c.597-1.387.896-2.539.896-3.456 0-1.195-.49-1.792-1.472-1.792-1.195 0-2.96 1.547-5.296 4.64-2.336 3.093-4.944 7.264-7.824 12.512l-2.112 6.08c-.107.299-.501.555-1.184.768a6.734 6.734 0 0 1-2.016.32 5.05 5.05 0 0 1-1.696-.272c-.512-.181-.768-.4-.768-.656l.032-.16L139.4 24.84c.555-1.472.832-2.517.832-3.136 0-.512-.192-.768-.576-.768-.683 0-1.888 1.12-3.616 3.36-.896 1.173-1.44 1.76-1.632 1.76-.277 0-.517-.123-.72-.368-.203-.245-.304-.485-.304-.72 0-.299.704-1.264 2.112-2.896 1.408-1.632 2.768-2.912 4.08-3.84 1.312-.928 2.448-1.392 3.408-1.392 2.176 0 3.264.96 3.264 2.88 0 1.173-.32 2.688-.96 4.544l-1.92 5.44c2.453-4.075 4.87-7.237 7.248-9.488 2.379-2.25 4.55-3.376 6.512-3.376 1.152 0 2.123.395 2.912 1.184.79.79 1.184 1.803 1.184 3.04zM3.148 118h12.416v-11.584l4.544-5.056L31.372 118h14.912L28.748 92.464 45.708 73.2h-14.72L15.564 91.376V73.2H3.148V118zm47.016-37.76h12.672v-8.96H50.164v8.96zM50.42 118h12.16V83.376H50.42V118zm19.944 0h12.16v-10.752c0-8 3.584-11.648 9.92-11.648h1.024V82.8c-5.76-.256-8.96 2.816-10.944 7.552v-6.976h-12.16V118zm51.112.768c8.192 0 15.296-6.848 15.296-18.112v-.128c0-11.072-7.104-17.92-15.36-17.92-5.184 0-8.128 2.496-10.496 5.376V71.28h-12.16V118h12.16v-4.224c2.24 2.624 5.312 4.992 10.56 4.992zm-3.776-10.176c-3.904 0-7.04-3.264-7.04-7.872v-.128c0-4.544 3.136-7.808 7.04-7.808 3.968 0 7.104 3.264 7.104 7.808v.128c0 4.672-3.136 7.872-7.104 7.872zm35.56 19.84c6.912 0 10.176-3.2 13.184-11.264l12.672-33.792h-12.48l-6.528 20.864-6.912-20.864H140.46l13.568 33.984c-.768 1.088-1.6 1.408-2.816 1.408-1.344 0-3.392-.704-5.312-1.856l-3.776 8.512c3.2 1.792 6.848 3.008 11.136 3.008z" fill="#000"/><path fill="#D0011B" d="M0 147h181v-8H0z"/></g></svg>