<?xml version="1.0" encoding="UTF-8" standalone="no"?>
<svg width="53px" height="48px" viewBox="0 0 53 48" version="1.1" xmlns="http://www.w3.org/2000/svg" xmlns:xlink="http://www.w3.org/1999/xlink">
    <!-- Generator: Sketch 39.1 (31720) - http://www.bohemiancoding.com/sketch -->
    <title>Shape</title>
    <desc>Created with Sketch.</desc>
    <defs></defs>
    <g id="Page-1" stroke="none" stroke-width="1" fill="none" fill-rule="evenodd">
        <g id="Kirby-Landing-Page" transform="translate(-1056.000000, -1048.000000)" fill="#4A4A4A">
            <g id="Group-3" transform="translate(96.000000, 944.000000)">
                <g id="Group-Copy-2" transform="translate(960.000000, 104.000000)">
                    <path d="M31.7936063,25.0095345 C33.1396523,24.9556927 34.4273696,25.1396523 35.6567583,25.5614133 C36.886147,25.9831744 37.9450365,26.5081324 38.8334268,27.1362872 C39.7218172,27.7644419 40.6281548,28.6124509 41.5524397,29.6803141 C42.4767246,30.7481772 43.2305104,31.7173304 43.813797,32.5877734 C44.3970836,33.4582165 45.0745934,34.5395401 45.8463264,35.8317443 C46.4385867,36.8367919 47.1430174,37.8149187 47.9596186,38.7661245 C48.7762198,39.7173303 49.4537297,40.4397084 49.9921481,40.9332586 C50.5305665,41.4268087 51.4189568,42.2209759 52.6573191,43.31576 C51.7958497,43.8541784 50.8222097,44.3701627 49.7363993,44.8637128 C48.6505889,45.357263 47.4077398,45.8867078 46.0078519,46.4520471 C44.6079641,47.0173864 43.5849692,47.4436343 42.9388671,47.7307908 C42.1491868,47.0667414 41.4851374,46.0347729 40.946719,44.634885 C40.4083006,43.2349972 40.0179473,41.7588334 39.775659,40.2063937 C39.5333707,38.653954 39.2372406,37.034212 38.8872686,35.3471677 C38.5372967,33.6601234 38.155917,32.1480651 37.7431296,30.8109927 C37.3303421,29.4739203 36.6797532,28.3701626 35.7913629,27.4997196 C34.9029725,26.6292765 33.8037016,26.194055 32.4935502,26.194055 L32.224341,26.2478968 L32.0628155,26.3555805 C32.1346046,26.4453169 32.2512619,26.5709478 32.4127874,26.7324734 C32.5204711,26.8222097 32.771733,27.0330903 33.1665732,27.365115 C33.5614134,27.6971396 33.7902412,27.8945597 33.8530566,27.9573752 C33.9158721,28.0201907 34.0863713,28.1817162 34.3645541,28.4419518 C34.642737,28.7021873 34.8042625,28.8861469 34.8491307,28.9938306 C34.8939989,29.1015143 34.9971957,29.2899607 35.1587213,29.5591699 C35.3202468,29.8283791 35.41447,30.0751542 35.4413909,30.2994952 C35.4683118,30.5238362 35.5086932,30.8020191 35.5625351,31.1340437 C35.6163769,31.4660684 35.6522714,31.8295008 35.6702187,32.224341 L35.6971397,33.1127314 C35.7150869,33.5793606 35.6926528,34.0953449 35.6298374,34.6606842 C35.5670219,35.2260236 35.4997196,35.6926528 35.4279305,36.0605721 C35.3561413,36.4284913 35.2439708,36.9534493 35.091419,37.6354459 C34.9388671,38.3174425 34.8356702,38.7930454 34.7818284,39.0622546 C34.1536736,39.0443073 33.247336,39.1295569 32.0628155,39.3180034 C30.878295,39.5064498 29.9988783,39.600673 29.4245653,39.600673 C28.7246214,39.600673 28.0785193,39.5109366 27.4862591,39.3314638 C27.4503646,39.0443073 27.4324173,38.6225463 27.4324173,38.0661806 C27.4324173,36.7380819 27.4593382,35.8766125 27.51318,35.4817723 C27.5490746,35.2484576 27.8317442,34.8760516 28.361189,34.3645541 C28.8906338,33.8530566 29.4021312,33.3236119 29.8956814,32.7762199 C30.3892316,32.2288278 30.6270331,31.7666854 30.6090858,31.3897925 C30.1783511,31.3538979 29.7924846,31.5692653 29.4514863,32.0358946 C28.8053842,32.9871004 27.8048233,33.8799776 26.4498037,34.7145261 C25.0947841,35.5490746 23.8698822,35.9663489 22.7750981,35.9663489 C22.3264161,35.9663489 21.6489063,35.4010095 20.7425687,34.2703309 C19.8362311,33.1396523 18.8805384,31.8878295 17.8754907,30.5148626 C16.8704431,29.1418957 16.1166573,28.2759394 15.6141335,27.9169938 C15.5064498,27.8452047 15.2641615,27.5759955 14.8872686,27.1093662 C6.23667976,29.1194616 1.63320248,30.1245093 1.07683679,30.1245093 C0.789680305,30.1245093 0.538418396,30.0257992 0.323051038,29.8283791 C0.107683679,29.6309591 0,29.3886708 0,29.1015143 C0,28.8323051 0.0762759305,28.5945037 0.228827818,28.3881099 C0.381379706,28.1817162 0.583286605,28.0515984 0.834548514,27.9977566 L13.9181155,25.1441391 C13.7745373,24.8928772 13.7027482,24.6685362 13.7027482,24.4711161 C13.7027482,24.273696 13.7521032,24.1166573 13.8508132,24 C13.9495233,23.8833427 14.0931015,23.7801458 14.281548,23.6904094 C14.4699944,23.600673 14.6494672,23.5378575 14.8199663,23.501963 C14.9904655,23.4660684 15.1968592,23.4256871 15.4391475,23.3808188 C15.6814358,23.3359506 15.8474481,23.2955693 15.9371845,23.2596747 C16.0089736,23.2417274 16.148065,23.1744251 16.3544588,23.0577678 C16.5608525,22.9411105 16.7178912,22.8827818 16.8255749,22.8827818 C17.0947841,22.8827818 17.346046,23.0263601 17.5793606,23.3135165 C17.8126753,23.600673 17.9921481,23.8968031 18.117779,24.2019069 C21.0431857,23.5378575 22.5866517,23.2058329 22.7481772,23.2058329 C23.053281,23.2058329 23.3180034,23.3045429 23.5423444,23.501963 C23.7666854,23.6993831 23.8788559,23.950645 23.8788559,24.2557487 C23.8788559,24.5249579 23.8025799,24.7582726 23.650028,24.9556927 C23.4974762,25.1531127 23.2865956,25.2787437 23.0173864,25.3325855 L18.117779,26.4094223 L18.0908581,26.840157 C18.0729108,27.3067863 18.8042625,28.361189 20.2849131,30.0033651 C21.7655637,31.6455412 22.703309,32.4666293 23.0981492,32.4666293 C23.9416713,32.4666293 25.0095345,31.7487381 26.3017386,30.3129557 C27.5939428,28.8771733 28.2400449,27.7195738 28.2400449,26.840157 C28.2400449,26.194055 28.0291643,25.718452 27.6074033,25.4133483 C27.1856422,25.1082445 26.7279865,24.9422322 26.2344363,24.9153113 C25.7408862,24.8883904 25.2832305,24.7851935 24.8614694,24.6057207 C24.4397083,24.4262479 24.2288278,24.1211441 24.2288278,23.6904094 C24.2288278,23.4032529 24.3185642,23.0981492 24.498037,22.7750981 L22.6674145,22.2636007 C23.4391475,21.4739204 23.825014,20.4240045 23.825014,19.1138531 C23.825014,18.6472238 23.7801458,18.1267527 23.6904094,17.5524397 C25.1620864,17.2652832 26.4542905,17.121705 27.5670219,17.121705 C28.3567022,17.121705 28.9983175,17.1351655 29.4918676,17.1620864 C29.9854178,17.1890073 30.4206394,17.2652832 30.7975322,17.3909142 C31.1744251,17.5165452 31.452608,17.6376893 31.6320808,17.7543466 C31.8115536,17.8710039 31.9955132,18.0908581 32.1839596,18.4139091 C32.3724061,18.7369602 32.5114975,19.0375771 32.6012339,19.31576 C32.6909703,19.5939428 32.8435222,20.0201907 33.0588895,20.5945036 C33.2742569,21.1688166 33.4896242,21.707235 33.7049916,22.2097588 L35.0510376,21.5367358 C34.9971957,22.254627 34.790802,22.7930454 34.4318564,23.151991 C34.0729108,23.5109366 33.6915311,23.6993831 33.2877173,23.7173303 C32.8839035,23.7352776 32.5249579,23.7936063 32.2108805,23.8923163 C31.8968031,23.9910264 31.7487381,24.174986 31.7666854,24.4441952 L31.7936063,25.0095345 Z M33.4088615,18.6831183 C33.3191251,18.5933819 33.1979809,18.4542905 33.0454291,18.2658441 C32.8928772,18.0773976 32.7851935,17.9472799 32.722378,17.8754907 C32.6595625,17.8037016 32.5653393,17.7005048 32.4397084,17.5659002 C32.3140774,17.4312956 32.224341,17.3370723 32.1704992,17.2832305 L31.9551318,17.0678632 C31.9551318,17.0678632 31.8788559,17.0005609 31.726304,16.8659563 C31.5737521,16.7313517 31.501963,16.6864834 31.5109366,16.7313517 C31.5199103,16.7762199 31.4436343,16.7358385 31.2821088,16.6102075 C31.1564778,16.5563657 31.0263601,16.5114975 30.8917555,16.4756029 C30.7571509,16.4397084 30.5731913,16.4172742 30.3398766,16.4083006 C30.106562,16.399327 29.9091419,16.3948402 29.7476164,16.3948402 L28.8726865,16.3948402 L27.863152,16.3948402 C25.6017947,16.3948402 23.6545149,16.7807067 22.0213124,17.5524397 C22.3084689,17.0140213 22.6315199,16.5967471 22.9904655,16.3006169 C23.3494111,16.0044868 23.8339877,15.7397645 24.4441952,15.5064498 C25.0544027,15.2731352 25.6421761,14.9500841 26.2075154,14.5372967 C26.7728547,14.1245093 27.1856422,13.7969714 27.4458777,13.5546831 C27.7061133,13.3123948 28.1547953,12.8188447 28.7919237,12.0740325 C29.4290522,11.3292204 29.8194055,10.8760516 29.9629837,10.7145261 C30.1783511,10.8760516 30.429613,11.1587213 30.7167695,11.5625351 C31.003926,11.9663489 31.2910824,12.2938867 31.5782389,12.5451486 C31.8653954,12.7964105 32.2063937,12.9130679 32.6012339,12.8951206 L32.9242849,12.8681997 L32.9242849,14.9141896 L33.5165451,14.9411105 C37.9495233,13.2361189 41.2787437,11.5311273 43.5042064,9.82613573 C44.0067302,9.44924285 44.4554122,9.09927089 44.8502524,8.77621985 C45.2450925,8.45316882 45.6264722,8.11665732 45.9943915,7.76668536 C46.3623107,7.4167134 46.6584408,7.13853058 46.8827818,6.93213685 C47.1071228,6.72574312 47.3718452,6.42063937 47.676949,6.01682557 C47.9820527,5.61301178 48.1974201,5.33482895 48.323051,5.18227706 C48.448682,5.02972517 48.6685362,4.6977005 48.9826136,4.18620303 C49.296691,3.67470555 49.5030847,3.33370723 49.6017947,3.16320808 C49.7005048,2.99270893 49.9427931,2.56646101 50.3286596,1.88446439 C50.7145261,1.20246776 50.9792485,0.726864835 51.1228267,0.457655637 L51.3112731,0.215367358 C51.2753786,1.16657318 50.889512,2.41390915 50.1536736,3.95737521 C48.7358385,6.91867639 46.8962423,9.28771733 44.634885,11.064498 C42.3735278,12.8412787 39.6275939,14.1155356 36.3970836,14.8872686 C36.1458217,14.9411105 35.7689288,15.0084128 35.2664049,15.0891755 C34.7638811,15.1699383 34.3151991,15.2551879 33.9203589,15.3449243 C33.5255188,15.4346607 33.1755468,15.5602916 32.8704431,15.7218172 C32.9242849,16.0628155 33.1441391,16.4756029 33.5300056,16.9601795 C33.9158721,17.444756 34.1088054,17.7498598 34.1088054,17.8754907 C34.1088054,18.0729108 33.8754907,18.34212 33.4088615,18.6831183 L33.4088615,18.6831183 Z M27.4593382,43.4772855 C28.1592821,43.0106562 29.3393158,42.5844083 30.9994391,42.1985418 C32.6595625,41.8126753 33.9742008,41.619742 34.9433539,41.619742 C35.1048794,41.619742 35.3067863,41.7588334 35.5490746,42.0370163 C35.7913629,42.3151991 36.0426248,42.6965788 36.3028603,43.1811554 C36.5630959,43.6657319 36.7964105,44.1144139 37.0028043,44.5272013 C37.209198,44.9399888 37.4245653,45.3976444 37.6489063,45.9001683 C37.8732473,46.4026921 38.0033651,46.6988222 38.0392597,46.7885586 C35.8676388,47.5961862 33.6780707,48 31.4705552,48 C30.3757712,48 29.2540662,47.90129 28.1054403,47.7038699 L27.4593382,43.4772855 Z M21.0252384,26.0594504 L22.3174425,25.7363993 L25.2518228,30.5014021 L23.2865956,31.7936063 L21.0252384,26.0594504 Z M34.5126192,39.9775659 C34.566461,40.2467751 34.5933819,40.3903533 34.5933819,40.4083006 C34.5933819,40.5339316 34.4363433,40.6640494 34.1222658,40.798654 C33.8081884,40.9332586 33.395401,41.0499159 32.8839035,41.1486259 C32.3724061,41.247336 31.8878295,41.3325855 31.4301739,41.4043746 C30.9725182,41.4761638 30.4924285,41.5434661 29.9899047,41.6062815 C29.4873808,41.669097 29.2002243,41.7094784 29.1284352,41.7274257 L28.9399888,40.5698261 C29.3168817,40.5339316 29.8597869,40.4576556 30.5687044,40.3409983 C31.277622,40.224341 31.9237241,40.1346046 32.5070107,40.0717891 C33.0902973,40.0089736 33.6332025,39.9775659 34.1357263,39.9775659 L34.5126192,39.9775659 L34.5126192,39.9775659 Z M22.2097588,23.0712283 L19.6253505,23.6096467 L19.463825,23.151991 C19.6432978,23.1340437 19.9349411,23.0712283 20.3387549,22.9635446 C20.7425687,22.8558609 21.0521593,22.8020191 21.2675266,22.8020191 C21.608525,22.8020191 21.9226023,22.8917555 22.2097588,23.0712283 L22.2097588,23.0712283 Z M27.4593382,40.1390914 L28.2938867,40.1390914 L28.5630959,42.3735278 L27.4593382,42.6965788 L27.4593382,40.1390914 L27.4593382,40.1390914 Z M51.3920359,0.1 L51.3920359,0 L51.3920359,0.1 L51.3920359,0.1 Z M51.4112731,0.0269209198 L51.3779398,0.161525519 L51.3112731,0.215367358 L51.3446065,0.134604599 L51.4112731,0.0269209198 Z M51.3920359,0.1 L51.4920359,0 L51.3920359,0.1 Z" id="Shape"></path>
                </g>
            </g>
        </g>
    </g>
</svg>