<svg width="52" height="49" xmlns="http://www.w3.org/2000/svg"><title>Shape</title><path d="M15.884 24.548c-2.893.09-5.259 1.233-7.098 3.429h-3.59c-1.464 0-2.696-.362-3.696-1.085S0 25.111 0 23.718c0-6.304 1.107-9.455 3.321-9.455.108 0 .496.187 1.166.562.67.375 1.54.755 2.611 1.139a9.402 9.402 0 0 0 3.188.575 10.76 10.76 0 0 0 3.562-.616c-.09.661-.134 1.25-.134 1.768 0 2.482.724 4.768 2.17 6.857zM44.57 41.611c0 2.143-.651 3.835-1.955 5.076-1.304 1.24-3.036 1.861-5.196 1.861h-23.41c-2.16 0-3.893-.62-5.197-1.861-1.303-1.241-1.955-2.933-1.955-5.076 0-.947.031-1.87.094-2.772a27.28 27.28 0 0 1 .375-2.92 22.56 22.56 0 0 1 .71-2.906A13.77 13.77 0 0 1 9.188 30.4a9.417 9.417 0 0 1 1.66-2.17c.625-.598 1.389-1.075 2.29-1.433.902-.357 1.898-.535 2.987-.535.179 0 .563.192 1.152.576.59.383 1.24.812 1.955 1.285.714.473 1.67.902 2.866 1.286 1.197.384 2.402.576 3.616.576 1.215 0 2.42-.192 3.616-.576 1.197-.384 2.152-.813 2.866-1.286.715-.473 1.366-.902 1.956-1.285.59-.384.973-.576 1.152-.576 1.089 0 2.084.178 2.986.535.902.358 1.665.835 2.29 1.433a9.417 9.417 0 0 1 1.661 2.17 13.77 13.77 0 0 1 1.152 2.612c.286.893.522 1.861.71 2.906a27.28 27.28 0 0 1 .375 2.92c.062.901.093 1.825.093 2.772zM17.143 7.406c0 1.892-.67 3.508-2.01 4.848-1.338 1.339-2.954 2.009-4.847 2.009-1.893 0-3.51-.67-4.848-2.01-1.34-1.339-2.01-2.955-2.01-4.847 0-1.893.67-3.51 2.01-4.849C6.777 1.218 8.393.548 10.286.548c1.893 0 3.509.67 4.848 2.01 1.34 1.339 2.009 2.955 2.009 4.848zM36 17.69c0 2.84-1.004 5.264-3.013 7.273-2.01 2.008-4.433 3.013-7.273 3.013-2.839 0-5.263-1.005-7.272-3.013-2.009-2.01-3.013-4.433-3.013-7.273 0-2.839 1.004-5.263 3.013-7.272 2.009-2.009 4.433-3.013 7.272-3.013 2.84 0 5.264 1.004 7.273 3.013C34.996 12.428 36 14.852 36 17.69zm15.429 6.027c0 1.393-.5 2.45-1.5 3.174-1 .723-2.233 1.085-3.697 1.085h-3.59c-1.838-2.196-4.204-3.34-7.097-3.429 1.446-2.089 2.17-4.375 2.17-6.857 0-.518-.045-1.107-.135-1.768a10.76 10.76 0 0 0 3.563.616 9.402 9.402 0 0 0 3.187-.575c1.072-.384 1.942-.764 2.612-1.139.67-.375 1.058-.562 1.165-.562 2.214 0 3.322 3.151 3.322 9.455zM48 7.406c0 1.892-.67 3.508-2.009 4.848-1.34 1.339-2.955 2.009-4.848 2.009-1.893 0-3.51-.67-4.848-2.01-1.34-1.339-2.01-2.955-2.01-4.847 0-1.893.67-3.51 2.01-4.849C37.634 1.218 39.25.548 41.143.548c1.893 0 3.509.67 4.848 2.01C47.331 3.896 48 5.512 48 7.405z" fill="#4A4A4A" fill-rule="evenodd"/></svg>