<svg width="64" height="48" xmlns="http://www.w3.org/2000/svg"><title>Shape</title><path d="M19.983 39.325l-1.747 1.746c-.233.233-.5.35-.804.35-.302 0-.57-.117-.803-.35L.349 24.791A1.1 1.1 0 0 1 0 23.988c0-.302.116-.57.35-.803l16.279-16.28c.233-.233.5-.349.803-.349.303 0 .57.116.804.35l1.747 1.746c.232.233.349.5.349.804 0 .302-.117.57-.35.803L6.254 23.99l13.73 13.729c.232.233.349.5.349.803 0 .303-.117.57-.35.804zM40.629 2.049l-13.03 45.1a1.14 1.14 0 0 1-.542.682.975.975 0 0 1-.821.087l-2.166-.593a1.136 1.136 0 0 1-.681-.542 1.046 1.046 0 0 1-.088-.856l13.03-45.1a1.14 1.14 0 0 1 .542-.681.975.975 0 0 1 .821-.088l2.166.594c.303.093.53.274.681.542.152.267.181.553.088.855zM63.58 24.792L47.3 41.072c-.233.232-.5.349-.803.349-.303 0-.57-.117-.804-.35l-1.746-1.746a1.106 1.106 0 0 1-.35-.804c0-.303.117-.57.35-.803l13.729-13.73-13.73-13.729a1.106 1.106 0 0 1-.349-.803c0-.303.117-.571.35-.804l1.746-1.747c.233-.233.501-.349.804-.349.303 0 .57.116.803.35l16.28 16.279c.233.233.35.5.35.803 0 .303-.117.571-.35.804z" fill="#4A4A4A" fill-rule="evenodd"/></svg>