<svg width="29" height="24" xmlns="http://www.w3.org/2000/svg"><title>Shape</title><path d="M24 13.67v5.42c0 1.353-.48 2.51-1.44 3.47-.96.96-2.117 1.44-3.47 1.44H4.91c-1.353 0-2.51-.48-3.47-1.44C.48 21.6 0 20.443 0 19.09V4.91C0 3.556.48 2.4 1.44 1.44 2.4.48 3.557 0 4.91 0h14.18c.717 0 1.382.142 1.995.426.17.08.273.21.307.392a.53.53 0 0 1-.153.495l-.836.835a.539.539 0 0 1-.392.17.541.541 0 0 1-.153-.034 3.032 3.032 0 0 0-.767-.102H4.909c-.75 0-1.392.267-1.926.801a2.626 2.626 0 0 0-.801 1.926v14.182c0 .75.267 1.392.801 1.926a2.626 2.626 0 0 0 1.926.801h14.182c.75 0 1.392-.267 1.926-.801a2.626 2.626 0 0 0 .801-1.926v-4.33a.51.51 0 0 1 .154-.375l1.09-1.09a.539.539 0 0 1 .393-.171c.068 0 .136.017.204.051.227.091.341.256.341.494zm3.938-8.335L14.063 19.21c-.273.273-.597.41-.972.41s-.699-.137-.972-.41l-7.33-7.33a1.327 1.327 0 0 1-.408-.97c0-.376.136-.7.409-.973l1.875-1.874c.272-.273.596-.41.971-.41s.7.137.972.41l4.483 4.482L24.119 1.517c.273-.273.597-.409.972-.409s.699.136.971.409l1.875 1.875c.273.273.41.597.41.972s-.137.699-.41.971z" fill="#595959" fill-rule="evenodd"/></svg>