<svg width="48" height="48" xmlns="http://www.w3.org/2000/svg"><title>Shape</title><path d="M43.259 0a4.79 4.79 0 0 1 3.281 1.246c.938.83 1.406 1.87 1.406 3.12 0 1.125-.401 2.473-1.205 4.045-5.929 11.232-10.08 17.946-12.455 20.143-1.732 1.625-3.679 2.437-5.84 2.437-2.25 0-4.183-.826-5.799-2.478-1.616-1.651-2.424-3.611-2.424-5.88 0-2.285.822-4.178 2.465-5.678L39.777 1.446C40.83.482 41.99 0 43.259 0zM18.91 27.696a10.63 10.63 0 0 0 2.852 3.483 10.828 10.828 0 0 0 4.032 2.035l.026 1.902c.072 3.804-1.084 6.902-3.468 9.295S16.857 48 13.018 48c-2.197 0-4.143-.415-5.84-1.246-1.696-.83-3.057-1.968-4.084-3.415-1.027-1.446-1.8-3.08-2.317-4.901C.259 36.616 0 34.652 0 32.545c.125.089.491.357 1.098.803.607.447 1.16.844 1.66 1.192s1.028.674 1.581.978c.554.303.965.455 1.232.455.733 0 1.224-.33 1.474-.99.446-1.18.96-2.184 1.54-3.014.58-.83 1.2-1.51 1.861-2.036.661-.527 1.447-.95 2.358-1.272.91-.322 1.83-.55 2.758-.683.93-.134 2.045-.228 3.349-.282z" fill="#4A4A4A" fill-rule="evenodd"/></svg>