<svg width="53" height="48" xmlns="http://www.w3.org/2000/svg"><title>Shape</title><path d="M31.794 25.01a10.52 10.52 0 0 1 3.863.551c1.23.422 2.288.947 3.176 1.575.889.628 1.795 1.476 2.72 2.544.924 1.068 1.678 2.037 2.26 2.908a75.44 75.44 0 0 1 2.033 3.244 20.449 20.449 0 0 0 2.114 2.934c.816.951 1.494 1.674 2.032 2.167.539.494 1.427 1.288 2.665 2.383a25.161 25.161 0 0 1-2.92 1.548 95.656 95.656 0 0 1-3.73 1.588 107.47 107.47 0 0 0-3.068 1.279c-.79-.664-1.454-1.696-1.992-3.096a21.56 21.56 0 0 1-1.171-4.429 99.495 99.495 0 0 0-.889-4.859 49.69 49.69 0 0 0-1.144-4.536c-.413-1.337-1.063-2.44-1.952-3.311-.888-.87-1.987-1.306-3.297-1.306l-.27.054-.161.108c.072.09.188.215.35.376l.754.633c.394.332.623.53.686.592.063.063.233.225.512.485.278.26.44.444.484.552.045.108.148.296.31.565.161.27.255.516.282.74.027.225.068.503.122.835.053.332.09.696.107 1.09l.027.889c.018.466-.004.982-.067 1.548-.063.565-.13 1.032-.202 1.4a63.28 63.28 0 0 1-.337 1.574 75.746 75.746 0 0 0-.31 1.427c-.627-.018-1.534.068-2.718.256-1.185.188-2.064.283-2.638.283-.7 0-1.346-.09-1.939-.27a11.027 11.027 0 0 1-.054-1.265c0-1.328.027-2.19.081-2.584.036-.234.319-.606.848-1.117a31.973 31.973 0 0 0 1.535-1.589c.493-.547.731-1.01.713-1.386-.43-.036-.817.18-1.158.646-.646.951-1.646 1.844-3.001 2.679-1.355.834-2.58 1.251-3.675 1.251-.449 0-1.126-.565-2.032-1.696a108.366 108.366 0 0 1-2.868-3.755c-1.005-1.373-1.758-2.24-2.26-2.598-.109-.072-.35-.341-.728-.808-8.65 2.01-13.254 3.016-13.81 3.016a1.08 1.08 0 0 1-.754-.297.948.948 0 0 1-.323-.726c0-.27.076-.507.229-.714a.987.987 0 0 1 .606-.39l13.083-2.854c-.143-.251-.215-.475-.215-.673 0-.197.05-.354.148-.471a1.27 1.27 0 0 1 .43-.31 2.42 2.42 0 0 1 .539-.188c.17-.036.377-.076.62-.121.241-.045.407-.085.497-.121.072-.018.211-.086.417-.202.207-.117.364-.175.472-.175.269 0 .52.143.753.43.234.288.413.584.539.889 2.925-.664 4.469-.996 4.63-.996.305 0 .57.099.794.296a.96.96 0 0 1 .337.754c0 .269-.076.502-.229.7a1.021 1.021 0 0 1-.633.377l-4.9 1.076-.026.431c-.018.467.713 1.521 2.194 3.163 1.48 1.643 2.418 2.464 2.813 2.464.844 0 1.912-.718 3.204-2.154 1.292-1.436 1.938-2.593 1.938-3.473 0-.646-.21-1.122-.633-1.427a2.54 2.54 0 0 0-1.373-.498 4.04 4.04 0 0 1-1.373-.31c-.421-.179-.632-.484-.632-.915 0-.287.09-.592.269-.915l-1.83-.511c.771-.79 1.157-1.84 1.157-3.15 0-.467-.045-.987-.135-1.562 1.472-.287 2.764-.43 3.877-.43.79 0 1.431.013 1.925.04.493.027.929.103 1.306.229.376.126.655.247.834.363.18.117.364.337.552.66.188.323.327.624.417.902.09.278.243.704.458 1.279.215.574.43 1.112.646 1.615l1.346-.673c-.054.718-.26 1.256-.62 1.615-.358.359-.74.547-1.143.565a4.222 4.222 0 0 0-1.077.175c-.314.099-.462.283-.444.552l.027.566zm1.615-6.327a5.87 5.87 0 0 1-.364-.417c-.152-.189-.26-.319-.323-.39a14.158 14.158 0 0 0-.282-.31 13.09 13.09 0 0 0-.27-.283l-.215-.215-.229-.202c-.152-.135-.224-.18-.215-.135.009.045-.067.005-.229-.12a2.86 2.86 0 0 0-.39-.135 2.628 2.628 0 0 0-.552-.068c-.233-.009-.43-.013-.592-.013h-1.885c-2.261 0-4.208.386-5.842 1.157.287-.538.61-.955.97-1.251.358-.297.843-.561 1.453-.795a7.575 7.575 0 0 0 1.764-.969c.565-.412.978-.74 1.238-.982.26-.243.709-.736 1.346-1.481a143.17 143.17 0 0 1 1.171-1.36c.215.162.467.445.754.849.287.403.574.73.861.982a1.4 1.4 0 0 0 1.023.35l.323-.027v2.046l.593.027c4.433-1.705 7.762-3.41 9.987-5.115.503-.377.951-.727 1.346-1.05.395-.323.776-.66 1.144-1.01.368-.35.664-.627.889-.834.224-.206.489-.511.794-.915.305-.404.52-.682.646-.835.126-.152.346-.484.66-.996.314-.511.52-.852.619-1.023.099-.17.34-.597.727-1.279.386-.682.65-1.157.794-1.426l.188-.243c-.036.952-.421 2.199-1.157 3.742-1.418 2.962-3.258 5.33-5.52 7.107-2.26 1.777-5.006 3.052-8.237 3.823-.251.054-.628.121-1.13.202-.503.08-.952.166-1.347.256-.394.09-.744.215-1.05.377.054.34.274.754.66 1.238.386.485.579.79.579.915 0 .198-.234.467-.7.808zm-5.95 24.794c.7-.466 1.88-.893 3.54-1.278 1.66-.386 2.975-.58 3.944-.58.162 0 .364.14.606.418.242.278.494.66.754 1.144.26.485.493.933.7 1.346.206.413.422.87.646 1.373.224.503.354.799.39.889-2.171.807-4.36 1.211-6.568 1.211a19.85 19.85 0 0 1-3.366-.296l-.646-4.227zM21.025 26.06l1.292-.323 2.935 4.765-1.965 1.293-2.262-5.735zm13.488 13.919c.053.269.08.412.08.43 0 .126-.157.256-.47.39-.315.135-.728.252-1.24.35a42.228 42.228 0 0 1-2.893.458c-.503.063-.79.103-.862.121l-.188-1.157c.377-.036.92-.112 1.629-.229a35.328 35.328 0 0 1 1.938-.27 15.272 15.272 0 0 1 1.629-.093h.377zM22.21 23.07l-2.585.539-.161-.458c.18-.018.47-.08.875-.188.404-.108.713-.162.929-.162.34 0 .655.09.942.27zm5.25 17.068h.834l.27 2.235-1.105.323v-2.558zM51.391.1V0v.1zm.02-.073l-.034.135-.067.053.034-.08.066-.108zm-.02.073l.1-.1-.1.1z" fill="#4A4A4A" fill-rule="evenodd"/></svg>