<?xml version="1.0" encoding="UTF-8" standalone="no"?>
<svg width="52px" height="49px" viewBox="0 0 52 49" version="1.1" xmlns="http://www.w3.org/2000/svg" xmlns:xlink="http://www.w3.org/1999/xlink">
    <!-- Generator: Sketch 39.1 (31720) - http://www.bohemiancoding.com/sketch -->
    <title>Shape</title>
    <desc>Created with Sketch.</desc>
    <defs></defs>
    <g id="Page-1" stroke="none" stroke-width="1" fill="none" fill-rule="evenodd">
        <g id="Kirby-Landing-Page" transform="translate(-736.000000, -1048.000000)" fill="#4A4A4A">
            <g id="Group-3" transform="translate(96.000000, 944.000000)">
                <g id="Group-Copy" transform="translate(640.000000, 104.000000)">
                    <path d="M15.883928,24.5483871 C12.991072,24.6376735 10.625,25.7805311 8.7857136,27.9769583 L5.1964288,27.9769583 C3.7321424,27.9769583 2.5,27.6153519 1.5,26.8921375 C0.5,26.1689231 0,25.1108879 0,23.7180303 C0,17.4144591 1.1071424,14.2626735 3.3214288,14.2626735 C3.4285712,14.2626735 3.8169648,14.4501727 4.4866064,14.8251727 C5.1562496,15.2001727 6.0267856,15.5796383 7.0982144,15.9635663 C8.1696432,16.3474943 9.2321424,16.5394591 10.2857136,16.5394591 C11.4821424,16.5394591 12.6696432,16.3341023 13.8482144,15.9233871 C13.758928,16.5841023 13.7142864,17.1733871 13.7142864,17.6912447 C13.7142864,20.1733871 14.4375008,22.4591023 15.883928,24.5483871 L15.883928,24.5483871 Z M44.5714288,41.6108879 C44.5714288,43.7537439 43.9196432,45.4457087 42.616072,46.6867807 C41.3124992,47.9278511 39.5803568,48.5483871 37.4196432,48.5483871 L14.008928,48.5483871 C11.8482144,48.5483871 10.116072,47.9278511 8.8124992,46.6867807 C7.508928,45.4457087 6.8571424,43.7537439 6.8571424,41.6108879 C6.8571424,40.6644591 6.8883936,39.7403519 6.9508928,38.8385663 C7.0133936,37.9367807 7.1383936,36.9635663 7.3258928,35.9189231 C7.5133936,34.8742799 7.75,33.9055311 8.0357136,33.0126735 C8.3214288,32.1198159 8.7053568,31.2492799 9.1875008,30.4010655 C9.6696432,29.5528511 10.2232144,28.8296383 10.8482144,28.2314239 C11.4732144,27.6332095 12.2366064,27.1555311 13.1383936,26.7983871 C14.0401792,26.4412447 15.0357136,26.2626735 16.125,26.2626735 C16.3035712,26.2626735 16.6875008,26.4546383 17.2767856,26.8385663 C17.866072,27.2224943 18.5178576,27.6510655 19.2321424,28.1242799 C19.9464288,28.5974943 20.9017856,29.0260655 22.0982144,29.4099951 C23.2946432,29.7939231 24.5,29.9858879 25.7142864,29.9858879 C26.9285712,29.9858879 28.133928,29.7939231 29.3303568,29.4099951 C30.5267856,29.0260655 31.4821424,28.5974943 32.1964288,28.1242799 C32.9107136,27.6510655 33.5624992,27.2224943 34.1517856,26.8385663 C34.741072,26.4546383 35.125,26.2626735 35.3035712,26.2626735 C36.3928576,26.2626735 37.3883936,26.4412447 38.2901792,26.7983871 C39.1919648,27.1555311 39.9553568,27.6332095 40.5803568,28.2314239 C41.2053568,28.8296383 41.758928,29.5528511 42.241072,30.4010655 C42.7232144,31.2492799 43.1071424,32.1198159 43.3928576,33.0126735 C43.6785712,33.9055311 43.9151792,34.8742799 44.1026784,35.9189231 C44.2901792,36.9635663 44.4151792,37.9367807 44.4776784,38.8385663 C44.5401792,39.7403519 44.5714288,40.6644591 44.5714288,41.6108879 L44.5714288,41.6108879 Z M17.1428576,7.4055311 C17.1428576,9.2983871 16.4732144,10.9144591 15.133928,12.2537439 C13.7946432,13.5930303 12.1785712,14.2626735 10.2857136,14.2626735 C8.3928576,14.2626735 6.7767856,13.5930303 5.4375008,12.2537439 C4.0982144,10.9144591 3.4285712,9.2983871 3.4285712,7.4055311 C3.4285712,5.5126735 4.0982144,3.8966015 5.4375008,2.5573167 C6.7767856,1.2180303 8.3928576,0.548387097 10.2857136,0.548387097 C12.1785712,0.548387097 13.7946432,1.2180303 15.133928,2.5573167 C16.4732144,3.8966015 17.1428576,5.5126735 17.1428576,7.4055311 L17.1428576,7.4055311 Z M36,17.6912447 C36,20.5305311 34.995536,22.9546383 32.9866064,24.9635663 C30.9776784,26.9724943 28.5535712,27.9769583 25.7142864,27.9769583 C22.875,27.9769583 20.4508928,26.9724943 18.4419648,24.9635663 C16.4330352,22.9546383 15.4285712,20.5305311 15.4285712,17.6912447 C15.4285712,14.8519583 16.4330352,12.4278511 18.4419648,10.4189231 C20.4508928,8.4099951 22.875,7.4055311 25.7142864,7.4055311 C28.5535712,7.4055311 30.9776784,8.4099951 32.9866064,10.4189231 C34.995536,12.4278511 36,14.8519583 36,17.6912447 L36,17.6912447 Z M51.4285712,23.7180303 C51.4285712,25.1108879 50.9285712,26.1689231 49.9285712,26.8921375 C48.9285712,27.6153519 47.6964288,27.9769583 46.2321424,27.9769583 L42.6428576,27.9769583 C40.8035712,25.7805311 38.4375008,24.6376735 35.5446432,24.5483871 C36.991072,22.4591023 37.7142864,20.1733871 37.7142864,17.6912447 C37.7142864,17.1733871 37.6696432,16.5841023 37.5803568,15.9233871 C38.758928,16.3341023 39.9464288,16.5394591 41.1428576,16.5394591 C42.1964288,16.5394591 43.258928,16.3474943 44.3303568,15.9635663 C45.4017856,15.5796383 46.2723216,15.2001727 46.9419648,14.8251727 C47.6116064,14.4501727 48,14.2626735 48.1071424,14.2626735 C50.3214288,14.2626735 51.4285712,17.4144591 51.4285712,23.7180303 L51.4285712,23.7180303 Z M48,7.4055311 C48,9.2983871 47.3303568,10.9144591 45.991072,12.2537439 C44.6517856,13.5930303 43.0357136,14.2626735 41.1428576,14.2626735 C39.25,14.2626735 37.633928,13.5930303 36.2946432,12.2537439 C34.9553568,10.9144591 34.2857136,9.2983871 34.2857136,7.4055311 C34.2857136,5.5126735 34.9553568,3.8966015 36.2946432,2.5573167 C37.633928,1.2180303 39.25,0.548387097 41.1428576,0.548387097 C43.0357136,0.548387097 44.6517856,1.2180303 45.991072,2.5573167 C47.3303568,3.8966015 48,5.5126735 48,7.4055311 L48,7.4055311 Z" id="Shape"></path>
                </g>
            </g>
        </g>
    </g>
</svg>