<?xml version="1.0" encoding="UTF-8" standalone="no"?>
<svg width="48px" height="48px" viewBox="0 0 48 48" version="1.1" xmlns="http://www.w3.org/2000/svg" xmlns:xlink="http://www.w3.org/1999/xlink">
    <!-- Generator: Sketch 39.1 (31720) - http://www.bohemiancoding.com/sketch -->
    <title>Shape</title>
    <desc>Created with Sketch.</desc>
    <defs></defs>
    <g id="Page-1" stroke="none" stroke-width="1" fill="none" fill-rule="evenodd">
        <g id="Kirby-Landing-Page" transform="translate(-101.000000, -1048.000000)" fill="#4A4A4A">
            <g id="Group-3" transform="translate(96.000000, 944.000000)">
                <g id="Group-2" transform="translate(0.000000, 104.000000)">
                    <path d="M48.258928,0 C49.508928,0 50.6026784,0.4151792 51.5401792,1.245536 C52.4776784,2.0758928 52.9464288,3.116072 52.9464288,4.366072 C52.9464288,5.491072 52.5446432,6.8392864 51.741072,8.4107152 C45.8124992,19.6428576 41.6607136,26.357144 39.2857136,28.5535712 C37.5535712,30.1785712 35.6071424,30.991072 33.4464288,30.991072 C31.1964288,30.991072 29.2633936,30.1651792 27.6473216,28.5133936 C26.0312496,26.861608 25.2232144,24.9017856 25.2232144,22.6339296 C25.2232144,20.3482144 26.0446432,18.4553568 27.6875008,16.9553568 L44.7767856,1.4464288 C45.8303568,0.482144 46.991072,0 48.258928,0 L48.258928,0 Z M23.9107136,27.6964288 C24.6071424,29.0535712 25.5580352,30.2142864 26.7633936,31.1785712 C27.9687504,32.1428576 29.3124992,32.8214288 30.7946432,33.2142864 L30.8214288,35.116072 C30.8928576,38.9196432 29.7366064,42.0178576 27.3526784,44.4107152 C24.9687504,46.8035712 21.8571424,48 18.0178576,48 C15.8214288,48 13.875,47.5848224 12.1785712,46.754464 C10.4821424,45.9241072 9.120536,44.7857152 8.0937504,43.3392864 C7.0669648,41.8928576 6.2946432,40.2589296 5.7767856,38.4375008 C5.258928,36.616072 5,34.6517856 5,32.5446432 C5.125,32.6339296 5.491072,32.9017856 6.0982144,33.3482144 C6.7053568,33.7946432 7.258928,34.1919648 7.758928,34.5401792 C8.258928,34.8883936 8.7857136,35.2142864 9.3392864,35.5178576 C9.8928576,35.8214288 10.3035712,35.9732144 10.5714288,35.9732144 C11.3035712,35.9732144 11.7946432,35.6428576 12.0446432,34.982144 C12.491072,33.8035712 13.004464,32.7991072 13.5848208,31.9687504 C14.1651792,31.1383936 14.7857136,30.4598224 15.4464288,29.9330368 C16.1071424,29.4062512 16.8928576,28.982144 17.8035712,28.6607152 C18.7142864,28.3392864 19.633928,28.111608 20.5624992,27.9776784 C21.491072,27.8437504 22.6071424,27.75 23.9107136,27.6964288 L23.9107136,27.6964288 Z" id="Shape"></path>
                </g>
            </g>
        </g>
    </g>
</svg>