<?xml version="1.0" encoding="UTF-8" standalone="no"?>
<svg width="64px" height="48px" viewBox="0 0 64 48" version="1.1" xmlns="http://www.w3.org/2000/svg" xmlns:xlink="http://www.w3.org/1999/xlink">
    <!-- Generator: Sketch 39.1 (31720) - http://www.bohemiancoding.com/sketch -->
    <title>Shape</title>
    <desc>Created with Sketch.</desc>
    <defs></defs>
    <g id="Page-1" stroke="none" stroke-width="1" fill="none" fill-rule="evenodd">
        <g id="Kirby-Landing-Page" transform="translate(-416.000000, -1048.000000)" fill="#4A4A4A">
            <g id="Group-3" transform="translate(96.000000, 944.000000)">
                <g id="Group" transform="translate(320.000000, 104.000000)">
                    <g id="code">
                        <path d="M19.9825328,39.3245997 L18.2358079,41.0713246 C18.0029112,41.3042212 17.7350801,41.4206696 17.4323144,41.4206696 C17.1295488,41.4206696 16.8617176,41.3042212 16.628821,41.0713246 L0.349344978,24.7918486 C0.116448314,24.558952 0,24.2911208 0,23.9883552 C0,23.6855895 0.116448314,23.4177584 0.349344978,23.1848617 L16.628821,6.90538575 C16.8617176,6.67248908 17.1295488,6.55604077 17.4323144,6.55604077 C17.7350801,6.55604077 18.0029112,6.67248908 18.2358079,6.90538575 L19.9825328,8.65211064 C20.2154294,8.88500727 20.3318777,9.15283843 20.3318777,9.45560409 C20.3318777,9.75836971 20.2154294,10.0262009 19.9825328,10.2590975 L6.25327511,23.9883552 L19.9825328,37.7176128 C20.2154294,37.9505094 20.3318777,38.2183406 20.3318777,38.5211063 C20.3318777,38.8238719 20.2154294,39.0917031 19.9825328,39.3245997 L19.9825328,39.3245997 Z M40.628821,2.04949055 L27.5982533,47.1499272 C27.5050946,47.4526929 27.3245997,47.6797671 27.0567686,47.8311499 C26.7889374,47.9825328 26.5152838,48.0116448 26.2358079,47.9184862 L24.069869,47.3245997 C23.7671033,47.231441 23.5400291,47.0509461 23.3886463,46.783115 C23.2372635,46.5152838 23.2081514,46.2299854 23.30131,45.9272198 L36.3318777,0.826783127 C36.4250364,0.524017467 36.6055313,0.296943231 36.8733624,0.145560419 C37.1411936,-0.00582242795 37.4148472,-0.0349344978 37.6943231,0.0582241747 L39.860262,0.652110638 C40.1630277,0.745269275 40.3901019,0.925764192 40.5414847,1.19359535 C40.6928675,1.46142648 40.7219796,1.74672489 40.628821,2.04949055 L40.628821,2.04949055 Z M63.580786,24.7918486 L47.30131,41.0713246 C47.0684134,41.3042212 46.8005823,41.4206696 46.4978166,41.4206696 C46.1950509,41.4206696 45.9272198,41.3042212 45.6943231,41.0713246 L43.9475983,39.3245997 C43.7147016,39.0917031 43.5982533,38.8238719 43.5982533,38.5211063 C43.5982533,38.2183406 43.7147016,37.9505094 43.9475983,37.7176128 L57.6768559,23.9883552 L43.9475983,10.2590975 C43.7147016,10.0262009 43.5982533,9.75836971 43.5982533,9.45560409 C43.5982533,9.15283843 43.7147016,8.88500727 43.9475983,8.65211064 L45.6943231,6.90538575 C45.9272198,6.67248908 46.1950509,6.55604077 46.4978166,6.55604077 C46.8005823,6.55604077 47.0684134,6.67248908 47.30131,6.90538575 L63.580786,23.1848617 C63.8136827,23.4177584 63.930131,23.6855895 63.930131,23.9883552 C63.930131,24.2911208 63.8136827,24.558952 63.580786,24.7918486 L63.580786,24.7918486 Z" id="Shape"></path>
                    </g>
                </g>
            </g>
        </g>
    </g>
</svg>