<?xml version="1.0" encoding="UTF-8" standalone="no"?>
<svg width="29px" height="24px" viewBox="0 0 29 24" version="1.1" xmlns="http://www.w3.org/2000/svg" xmlns:xlink="http://www.w3.org/1999/xlink">
    <!-- Generator: Sketch 39.1 (31720) - http://www.bohemiancoding.com/sketch -->
    <title>Shape</title>
    <desc>Created with Sketch.</desc>
    <defs></defs>
    <g id="Page-1" stroke="none" stroke-width="1" fill="none" fill-rule="evenodd">
        <g id="Kirby-Landing-Page" transform="translate(-949.000000, -1912.000000)" fill="#595959">
            <g id="Signup" transform="translate(202.000000, 1912.000000)">
                <g id="Lessons" transform="translate(747.000000, 0.000000)">
                    <path d="M24,13.6704545 L24,19.0909091 C24,20.4431818 23.5198864,21.5994318 22.5596591,22.5596591 C21.5994318,23.5198864 20.4431818,24 19.0909091,24 L4.90909091,24 C3.55681819,24 2.40056818,23.5198864 1.44034091,22.5596591 C0.480113642,21.5994318 0,20.4431818 0,19.0909091 L0,4.90909091 C0,3.55681819 0.480113642,2.40056818 1.44034091,1.44034091 C2.40056818,0.480113642 3.55681819,0 4.90909091,0 L19.0909091,0 C19.8068182,0 20.4715909,0.142045449 21.0852273,0.426136364 C21.2556818,0.505681824 21.3579545,0.636363631 21.3920455,0.818181818 C21.4261364,1.01136363 21.375,1.17613636 21.2386364,1.3125 L20.4034091,2.14772727 C20.2897727,2.26136364 20.1590909,2.31818182 20.0113636,2.31818182 C19.9772727,2.31818182 19.9261364,2.30681818 19.8579545,2.28409091 C19.5965909,2.21590909 19.3409091,2.18181818 19.0909091,2.18181818 L4.90909091,2.18181818 C4.15909091,2.18181818 3.51704545,2.44886364 2.98295455,2.98295455 C2.44886364,3.51704545 2.18181818,4.15909091 2.18181818,4.90909091 L2.18181818,19.0909091 C2.18181818,19.8409091 2.44886364,20.4829546 2.98295455,21.0170455 C3.51704545,21.5511364 4.15909091,21.8181818 4.90909091,21.8181818 L19.0909091,21.8181818 C19.8409091,21.8181818 20.4829546,21.5511364 21.0170455,21.0170455 C21.5511364,20.4829546 21.8181818,19.8409091 21.8181818,19.0909091 L21.8181818,14.7613636 C21.8181818,14.6136364 21.8693182,14.4886364 21.9715909,14.3863636 L23.0625,13.2954545 C23.1761364,13.1818182 23.3068182,13.125 23.4545455,13.125 C23.5227273,13.125 23.5909091,13.1420455 23.6590909,13.1761364 C23.8863636,13.2670454 24,13.4318182 24,13.6704545 L24,13.6704545 Z M27.9375,5.33522727 L14.0625,19.2102273 C13.7897727,19.4829545 13.4659091,19.6193182 13.0909091,19.6193182 C12.7159091,19.6193182 12.3920455,19.4829545 12.1193182,19.2102273 L4.78977273,11.8806818 C4.51704545,11.6079545 4.38068182,11.2840909 4.38068182,10.9090909 C4.38068182,10.5340909 4.51704545,10.2102273 4.78977273,9.9375 L6.66477273,8.0625 C6.9375,7.78977273 7.26136364,7.65340909 7.63636364,7.65340909 C8.01136364,7.65340909 8.33522727,7.78977273 8.60795455,8.0625 L13.0909091,12.5454545 L24.1193182,1.51704545 C24.3920455,1.24431818 24.7159091,1.10795455 25.0909091,1.10795455 C25.4659091,1.10795455 25.7897727,1.24431818 26.0625,1.51704545 L27.9375,3.39204545 C28.2102273,3.66477273 28.3465909,3.98863636 28.3465909,4.36363636 C28.3465909,4.73863636 28.2102273,5.0625 27.9375,5.33522727 L27.9375,5.33522727 Z" id="Shape"></path>
                </g>
            </g>
        </g>
    </g>
</svg>